# xmcd
#
# Track frame offsets:
#	150
#	16949
#	35200
#	51474
#	70014
#	83937
#	99140
#	119468
#	135526
#	153707
#	175713
#	185548
#
# Disc length: 2812 seconds
#
# Revision: 0
# Processed by: cddbd v1.5.1PL0 Copyright (c) Steve Scherf et al.
# Submitted via: dBpowerAMP V4.0
#
DISCID=9f0afa0c
DTITLE=Gentleman Callers - Gentleman Callers
DYEAR=1900
DGENRE=Country
TTITLE0=That's Luck
TTITLE1=The Shot that Killed Me
TTITLE2=I Miss the Misery
TTITLE3=No Tomorrow Style
TTITLE4=Drinkin' Man
TTITLE5=Queen of Shame
TTITLE6=Angels in my Livingroom
TTITLE7=Gravel Rd.
TTITLE8=The Hurtin' One
TTITLE9=Twined
TTITLE10=When it Happens
TTITLE11=Graveyard Ghost
EXTD=The Gentleman Callers are a band from Lansing, Michigan. I saw them at a concert in 05 and they gave me this CD. Nice guys...good music.
EXTT0=
EXTT1=
EXTT2=
EXTT3=
EXTT4=
EXTT5=
EXTT6=
EXTT7=
EXTT8=
EXTT9=
EXTT10=
EXTT11=
PLAYORDER=
